<svg width="32" height="32" viewBox="0 0 32 32" fill="none" xmlns="http://www.w3.org/2000/svg">
<path d="M26.759 18.0625L24.559 15.3125C24.4559 15.1837 24.3252 15.0798 24.1765 15.0084C24.0278 14.937 23.8649 14.8999 23.6999 14.9H17.1V12.7H23.6999C24.9132 12.7 25.8999 11.7133 25.8999 10.5V7.2C25.8999 5.9867 24.9132 5 23.6999 5H8.30007C8.13511 4.99994 7.97225 5.03698 7.82354 5.10838C7.67483 5.17979 7.54408 5.28372 7.44098 5.4125L5.241 8.1625C5.08499 8.35768 5 8.60013 5 8.85C5 9.09987 5.08499 9.34232 5.241 9.5375L7.44098 12.2875C7.54408 12.4163 7.67483 12.5202 7.82354 12.5916C7.97225 12.663 8.13511 12.7001 8.30007 12.7H14.9V14.9H8.30007C7.08678 14.9 6.10009 15.8867 6.10009 17.1V20.4C6.10009 21.6133 7.08678 22.6 8.30007 22.6H14.9V27H17.1V22.6H23.6999C23.8649 22.6001 24.0278 22.563 24.1765 22.4916C24.3252 22.4202 24.4559 22.3163 24.559 22.1875L26.759 19.4375C26.915 19.2423 27 18.9999 27 18.75C27 18.5001 26.915 18.2577 26.759 18.0625ZM7.50918 8.85L8.82807 7.2H23.6999L23.7021 10.5H8.82807L7.50918 8.85ZM23.1719 20.4H8.30007V17.1H23.1719L24.4919 18.75L23.1719 20.4Z" fill="#FF8F1E"/>
</svg>
