<svg width="32" height="32" viewBox="0 0 32 32" fill="none" xmlns="http://www.w3.org/2000/svg">
<path d="M17.824 3.37891C12.933 3.37891 8.688 6.17591 6.551 10.2809C5.343 10.7519 4.311 11.5859 3.586 12.6519C2.082 13.1749 1 14.6219 1 16.3269C1 18.0319 2.082 19.4789 3.586 20.0019C4.311 21.0679 5.343 21.9009 6.551 22.3729C8.689 26.4769 12.934 29.2749 17.824 29.2749C24.862 29.2749 30.568 23.4769 30.568 16.3269C30.568 9.17591 24.862 3.37891 17.824 3.37891ZM17.824 26.6859C14.569 26.6859 11.671 25.1379 9.804 22.7269C8.892 21.5479 8.227 20.1629 7.886 18.6529C7.717 17.9049 7.626 17.1279 7.626 16.3279C7.626 15.5279 7.717 14.7509 7.886 14.0039C8.227 12.4929 8.892 11.1079 9.804 9.92991C11.671 7.51891 14.568 5.97091 17.824 5.97091C23.455 5.97091 28.019 10.6079 28.019 16.3289C28.019 22.0499 23.454 26.6859 17.824 26.6859Z" fill="#FF8F1E"/>
<path d="M15.6034 24H16.4022V22.5H15.6121C15.3661 22.4955 13.2067 22.3702 13.2067 19.5C13.2067 18.0052 12.6755 17.0655 12.0068 16.5C12.6755 15.9345 13.2067 14.9948 13.2067 13.5C13.2067 10.6298 15.3661 10.5045 15.6034 10.5H16.4022V9H15.6018C14.2205 9.003 11.6089 9.948 11.6089 13.5C11.6089 15.6 10.2684 15.7425 10 15.75L10.0112 17.25C10.0767 17.25 11.6089 17.2755 11.6089 19.5C11.6089 23.052 14.2205 23.997 15.6034 24ZM25.9888 15.75C25.9233 15.75 24.3911 15.7245 24.3911 13.5C24.3911 9.948 21.7795 9.003 20.3966 9H19.5978V10.5H20.3879C20.6339 10.5045 22.7933 10.6298 22.7933 13.5C22.7933 14.9948 23.3245 15.9345 23.9932 16.5C23.3245 17.0655 22.7933 18.0052 22.7933 19.5C22.7933 22.3702 20.6339 22.4955 20.3966 22.5H19.5978V24H20.3982C21.7795 23.997 24.3911 23.052 24.3911 19.5C24.3911 17.4 25.7316 17.2575 26 17.25L25.9888 15.75Z" fill="#FF8F1E"/>
</svg>
