<svg width="32" height="32" viewBox="0 0 32 32" fill="none" xmlns="http://www.w3.org/2000/svg">
<path d="M17.824 3.37891C12.933 3.37891 8.688 6.17591 6.551 10.2809C5.343 10.7519 4.311 11.5859 3.586 12.6519C2.082 13.1749 1 14.6219 1 16.3269C1 18.0319 2.082 19.4789 3.586 20.0019C4.311 21.0679 5.343 21.9009 6.551 22.3729C8.689 26.4769 12.934 29.2749 17.824 29.2749C24.862 29.2749 30.568 23.4769 30.568 16.3269C30.568 9.17591 24.862 3.37891 17.824 3.37891ZM17.824 26.6859C14.569 26.6859 11.671 25.1379 9.804 22.7269C8.892 21.5479 8.227 20.1629 7.886 18.6529C7.717 17.9049 7.626 17.1279 7.626 16.3279C7.626 15.5279 7.717 14.7509 7.886 14.0039C8.227 12.4929 8.892 11.1079 9.804 9.92991C11.671 7.51891 14.568 5.97091 17.824 5.97091C23.455 5.97091 28.019 10.6079 28.019 16.3289C28.019 22.0499 23.454 26.6859 17.824 26.6859Z" fill="#FF8F1E"/>
<path d="M24.9881 17.2747L23.6924 10.1487C23.6338 9.82625 23.4639 9.5346 23.2123 9.32466C22.9606 9.11472 22.6432 8.99981 22.3155 9H13.6845C13.3565 8.99998 13.039 9.11511 12.7872 9.3253C12.5354 9.53549 12.3654 9.82739 12.3069 10.1501L11.0119 17.2747L11.0252 17.2768C11.0168 17.3188 11 17.3566 11 17.4V20.9C11 21.6721 11.6279 22.3 12.4 22.3H23.6C24.3721 22.3 25 21.6721 25 20.9V17.4C25 17.3559 24.9832 17.3188 24.9755 17.2768L24.9881 17.2747ZM13.6845 10.4H22.3162L23.4621 16.7H12.5386L13.6845 10.4ZM12.4 20.9V18.1H23.6L23.6014 20.9H12.4Z" fill="#FF8F1E"/>
<path d="M21.5 18.8H22.9V20.2H21.5V18.8ZM19.4 18.8H20.8V20.2H19.4V18.8Z" fill="#FF8F1E"/>
</svg>
