<svg width="32" height="32" viewBox="0 0 32 32" fill="none" xmlns="http://www.w3.org/2000/svg">
<path d="M16 2C8.2804 2 2 8.2804 2 16C2 23.7196 8.2804 30 16 30C23.7196 30 30 23.7196 30 16C30 8.2804 23.7196 2 16 2ZM16 27.2C9.8246 27.2 4.8 22.1754 4.8 16C4.8 9.8246 9.8246 4.8 16 4.8C22.1754 4.8 27.2 9.8246 27.2 16C27.2 22.1754 22.1754 27.2 16 27.2Z" fill="#FF8F1E"/>
<path d="M19.9797 19.7864C19.4655 20.2704 18.8582 20.6573 18.1903 20.9262C16.988 21.4055 15.6466 21.4755 14.3956 21.1242C13.1447 20.7728 12.0619 20.0219 11.3324 19L9 20.4865C9.60833 21.3342 10.3823 22.0646 11.2803 22.6385C12.1942 23.2221 13.2211 23.6298 14.3021 23.8381C15.4229 24.054 16.5785 24.054 17.6994 23.8381C18.7802 23.6295 19.807 23.2219 20.7211 22.6385C21.1614 22.3569 21.582 22.0301 21.9674 21.6675C22.3501 21.3075 22.699 20.9089 23 20.4865L20.6676 19C20.4654 19.2823 20.2351 19.5456 19.9797 19.7864Z" fill="#FF8F1E"/>
<path d="M11 16C12.1046 16 13 15.1046 13 14C13 12.8954 12.1046 12 11 12C9.89543 12 9 12.8954 9 14C9 15.1046 9.89543 16 11 16Z" fill="#FF8F1E"/>
<path d="M21 16C22.1046 16 23 15.1046 23 14C23 12.8954 22.1046 12 21 12C19.8954 12 19 12.8954 19 14C19 15.1046 19.8954 16 21 16Z" fill="#FF8F1E"/>
</svg>
