<svg width="32" height="32" viewBox="0 0 32 32" fill="none" xmlns="http://www.w3.org/2000/svg">
<path d="M23.9 8H9.20001C8.04186 8 7.10001 8.94185 7.10001 10.1V15.35H9.20001V12.2L15.92 17.24C16.1018 17.3762 16.3229 17.4497 16.55 17.4497C16.7772 17.4497 16.9982 17.3762 17.18 17.24L23.9 12.2V21.65H15.5V23.75H23.9C25.0582 23.75 26 22.8081 26 21.65V10.1C26 8.94185 25.0582 8 23.9 8ZM16.55 15.0875L9.89931 10.1H23.2007L16.55 15.0875Z" fill="#FF8F1E"/>
<path d="M5 16.4H12.35V18.5H5V16.4ZM7.1 19.55H13.4V21.65H7.1V19.55ZM10.25 22.7H14.45V24.8H10.25V22.7Z" fill="#FF8F1E"/>
</svg>
