<svg width="32" height="32" viewBox="0 0 32 32" fill="none" xmlns="http://www.w3.org/2000/svg">
<path d="M17.824 3.37891C12.933 3.37891 8.688 6.17591 6.551 10.2809C5.343 10.7519 4.311 11.5859 3.586 12.6519C2.082 13.1749 1 14.6219 1 16.3269C1 18.0319 2.082 19.4789 3.586 20.0019C4.311 21.0679 5.343 21.9009 6.551 22.3729C8.689 26.4769 12.934 29.2749 17.824 29.2749C24.862 29.2749 30.568 23.4769 30.568 16.3269C30.568 9.17591 24.862 3.37891 17.824 3.37891ZM17.824 26.6859C14.569 26.6859 11.671 25.1379 9.804 22.7269C8.892 21.5479 8.227 20.1629 7.886 18.6529C7.717 17.9049 7.626 17.1279 7.626 16.3279C7.626 15.5279 7.717 14.7509 7.886 14.0039C8.227 12.4929 8.892 11.1079 9.804 9.92991C11.671 7.51891 14.568 5.97091 17.824 5.97091C23.455 5.97091 28.019 10.6079 28.019 16.3289C28.019 22.0499 23.454 26.6859 17.824 26.6859Z" fill="#FF8F1E"/>
<path d="M18.6182 18.916C18.7148 19.0264 18.8295 19.1141 18.9557 19.1739C19.082 19.2337 19.2173 19.2644 19.354 19.2644C19.4907 19.2644 19.626 19.2337 19.7522 19.1739C19.8785 19.1141 19.9932 19.0264 20.0897 18.916L25.293 12.9735L23.8215 11.293L19.354 16.3952L16.9678 13.67C16.8712 13.5595 16.7565 13.4719 16.6303 13.4121C16.504 13.3523 16.3687 13.3215 16.232 13.3215C16.0953 13.3215 15.96 13.3523 15.8338 13.4121C15.7075 13.4719 15.5928 13.5595 15.4963 13.67L10.293 19.6124L11.7645 21.293L16.232 16.1908L18.6182 18.916Z" fill="#FF8F1E"/>
</svg>
