<svg width="32" height="32" viewBox="0 0 32 32" fill="none" xmlns="http://www.w3.org/2000/svg">
<path d="M17.824 3.37891C12.933 3.37891 8.688 6.17591 6.551 10.2809C5.343 10.7519 4.311 11.5859 3.586 12.6519C2.082 13.1749 1 14.6219 1 16.3269C1 18.0319 2.082 19.4789 3.586 20.0019C4.311 21.0679 5.343 21.9009 6.551 22.3729C8.689 26.4769 12.934 29.2749 17.824 29.2749C24.862 29.2749 30.568 23.4769 30.568 16.3269C30.568 9.17591 24.862 3.37891 17.824 3.37891ZM17.824 26.6859C14.569 26.6859 11.671 25.1379 9.804 22.7269C8.892 21.5479 8.227 20.1629 7.886 18.6529C7.717 17.9049 7.626 17.1279 7.626 16.3279C7.626 15.5279 7.717 14.7509 7.886 14.0039C8.227 12.4929 8.892 11.1079 9.804 9.92991C11.671 7.51891 14.568 5.97091 17.824 5.97091C23.455 5.97091 28.019 10.6079 28.019 16.3289C28.019 22.0499 23.454 26.6859 17.824 26.6859Z" fill="#FF8F1E"/>
<path d="M14.7143 11.625H16.5714V23H14.7143V11.625ZM18.4286 13.25H20.2857V23H18.4286V13.25ZM22.1429 10H24V23H22.1429V10ZM11 16.5H12.8571V23H11V16.5Z" fill="#FF8F1E"/>
</svg>
